<svg width="24" height="24" viewBox="0 0 24 24" fill="none" xmlns="http://www.w3.org/2000/svg">
<g opacity="0.5">
<path fill-rule="evenodd" clip-rule="evenodd" d="M7.0525 0.072C8.3325 0.014 8.741 0 12 0C15.259 0 15.6675 0.014 16.9475 0.072C18.8985 0.161 20.611 0.639 21.986 2.014C23.3615 3.3895 23.839 5.1025 23.928 7.0525C23.986 8.3325 24 8.741 24 12C24 15.259 23.986 15.6675 23.928 16.9475C23.839 18.8985 23.361 20.611 21.986 21.986C20.6105 23.3615 18.897 23.839 16.9475 23.928C15.6675 23.986 15.259 24 12 24C8.741 24 8.3325 23.986 7.0525 23.928C5.1015 23.839 3.389 23.361 2.014 21.986C0.6385 20.6105 0.161 18.8975 0.072 16.9475C0.014 15.6675 0 15.259 0 12C0 8.741 0.014 8.3325 0.072 7.0525C0.161 5.1015 0.639 3.389 2.014 2.014C3.3895 0.6385 5.1025 0.161 7.0525 0.072ZM16.8494 2.232C15.5839 2.174 15.2044 2.162 12.0004 2.162C8.79636 2.162 8.41686 2.1745 7.15136 2.232C5.78586 2.2945 4.51836 2.568 3.54336 3.543C2.56836 4.518 2.29486 5.7855 2.23236 7.151C2.17436 8.4165 2.16236 8.796 2.16236 12C2.16236 15.204 2.17486 15.5835 2.23236 16.849C2.29486 18.2145 2.56836 19.482 3.54336 20.457C4.51836 21.432 5.78586 21.7055 7.15136 21.768C8.41636 21.826 8.79586 21.838 12.0004 21.838C15.2049 21.838 15.5844 21.8255 16.8494 21.768C18.2149 21.7055 19.4824 21.432 20.4574 20.457C21.4324 19.482 21.7059 18.2145 21.7684 16.849C21.8264 15.5835 21.8384 15.204 21.8384 12C21.8384 8.796 21.8259 8.4165 21.7684 7.151C21.7059 5.7855 21.4324 4.518 20.4574 3.543C19.4824 2.568 18.2149 2.2945 16.8494 2.232Z" fill="#161C2D"/>
<path fill-rule="evenodd" clip-rule="evenodd" d="M6.54297 12.5455C6.54297 9.23192 9.22895 6.54546 12.543 6.54546C15.857 6.54546 18.543 9.23143 18.543 12.5455C18.543 15.8595 15.857 18.5455 12.543 18.5455C9.22895 18.5455 6.54297 15.859 6.54297 12.5455ZM8.64827 12.5455C8.64827 14.6964 10.3922 16.4403 12.5431 16.4403C14.694 16.4403 16.4379 14.6964 16.4379 12.5455C16.4379 10.3945 14.694 8.65063 12.5431 8.65063C10.3922 8.65063 8.64827 10.3945 8.64827 12.5455Z" fill="#161C2D"/>
<circle cx="18.0016" cy="6" r="1.63636" fill="#161C2D"/>
</g>
</svg>
