<svg width="24" height="24" viewBox="0 0 24 24" fill="none" xmlns="http://www.w3.org/2000/svg">
<g opacity="0.5">
<path fill-rule="evenodd" clip-rule="evenodd" d="M1 0H23C23.55 0 24 0.45 24 1V23C24 23.55 23.55 24 23 24H1C0.45 24 0 23.55 0 23V1C0 0.45 0.45 0 1 0ZM3.54948 20.45H7.09948V9H3.54948V20.45ZM5.34948 7.45C4.19948 7.45 3.29948 6.55 3.29948 5.4C3.29948 4.25 4.19948 3.35 5.34948 3.35C6.49948 3.35 7.39948 4.25 7.39948 5.4C7.39948 6.5 6.49948 7.45 5.34948 7.45ZM16.899 20.45H20.399V14.15C20.399 11.05 19.749 8.69999 16.149 8.69999C14.449 8.69999 13.249 9.64999 12.799 10.55H12.749V8.99999H9.34896V20.45H12.899V14.8C12.899 13.3 13.199 11.85 15.049 11.85C16.899 11.85 16.899 13.55 16.899 14.9V20.45Z" fill="#161C2D"/>
</g>
</svg>
