<svg width="24" height="22" viewBox="0 0 24 22" fill="none" xmlns="http://www.w3.org/2000/svg">
<path fill-rule="evenodd" clip-rule="evenodd" d="M24 2.93557C23.1 3.36856 22.15 3.63918 21.15 3.80155C22.15 3.15206 22.95 2.12371 23.3 0.878866C22.35 1.47423 21.3 1.90722 20.15 2.17784C19.25 1.14948 17.95 0.5 16.55 0.5C13.85 0.5 11.65 2.88144 11.65 5.80412C11.65 6.23711 11.7 6.61598 11.8 6.99485C7.75 6.77835 4.1 4.66753 1.65 1.4201C1.25 2.23196 1 3.09794 1 4.07216C1 5.91237 1.85 7.53608 3.2 8.51031C2.4 8.45619 1.65 8.23969 0.95 7.86082V7.91495C0.95 10.5129 2.65 12.6778 4.9 13.1649C4.5 13.2732 4.05 13.3273 3.6 13.3273C3.3 13.3273 2.95 13.2732 2.65 13.2191C3.3 15.3299 5.1 16.8995 7.25 16.8995C5.55 18.3067 3.45 19.1727 1.15 19.1727C0.75 19.1727 0.35 19.1727 0 19.1186C2.2 20.634 4.75 21.5 7.55 21.5C16.6 21.5 21.55 13.3814 21.55 6.34536C21.55 6.12887 21.55 5.85825 21.55 5.64175C22.5 4.93814 23.35 4.01804 24 2.93557Z" fill="#5570FF"/>
</svg>
